<svg width="400" height="400" viewBox="0 0 400 400" fill="none" xmlns="http://www.w3.org/2000/svg">
<path d="M379.995 110.736C379.995 115.817 376.348 119.937 371.848 119.937C367.349 119.937 363.702 115.817 363.702 110.736C363.702 105.655 367.349 101.536 371.848 101.536C376.348 101.536 379.995 105.655 379.995 110.736Z" fill="white"/>
<path d="M395.098 271.99C402.995 232.964 401.326 192.287 390.265 154.228C379.203 116.168 359.157 82.1277 332.23 55.6771C305.302 29.2264 272.485 11.3403 237.221 3.89478C201.957 -3.55076 165.545 -0.281322 131.804 13.3602C98.064 27.0016 68.2386 50.5125 45.4565 81.4265C22.6745 112.341 7.77538 149.519 2.32199 189.061C-3.13139 228.604 1.06191 269.053 14.4621 306.167C27.8622 343.281 49.9754 375.692 78.4821 400L79.6973 398.229C51.4756 374.165 29.5836 342.078 16.3174 305.335C3.05129 268.592 -1.10008 228.547 4.29877 189.4C9.69762 150.253 24.4477 113.447 47.002 82.8416C69.5562 52.2367 99.0833 28.961 132.486 15.4559C165.889 1.95083 201.937 -1.28591 236.849 6.08517C271.76 13.4562 304.249 31.1635 330.908 57.3497C357.566 83.5358 377.411 117.236 388.362 154.915C399.313 192.594 400.965 232.863 393.147 271.5L395.098 271.99Z" fill="url(#paint0_linear_94_5763)"/>
<path d="M390.649 139.045C390.649 137.091 389.246 135.507 387.515 135.507C385.785 135.507 384.382 137.091 384.382 139.045C384.382 141 385.785 142.584 387.515 142.584C389.246 142.584 390.649 141 390.649 139.045Z" fill="white"/>
<path d="M376.862 110.736C376.862 113.863 374.617 116.398 371.848 116.398C369.08 116.398 366.835 113.863 366.835 110.736C366.835 107.609 369.08 105.074 371.848 105.074C374.617 105.074 376.862 107.609 376.862 110.736Z" fill="#231F20"/>
<path d="M388.71 154.814C385.153 142.577 380.66 130.759 375.301 119.481C375.696 119.283 376.076 119.053 376.436 118.793C379.319 124.863 381.952 131.088 384.326 137.45C384.129 137.94 384.02 138.481 384.02 139.045C384.02 140.656 384.907 142.079 386.202 142.663C387.535 146.506 388.774 150.396 389.917 154.329C400.927 192.211 402.618 232.691 394.818 271.547L393.57 271.233C401.322 232.643 399.645 192.439 388.71 154.814ZM376.118 118.126C375.76 118.392 375.382 118.626 374.988 118.824C374.593 117.999 374.193 117.177 373.788 116.358C374.195 116.182 374.577 115.952 374.927 115.676C375.329 116.49 375.726 117.306 376.118 118.126ZM374.597 115.01C374.252 115.298 373.871 115.533 373.465 115.705C371.961 112.685 370.395 109.704 368.767 106.767C369.089 106.443 369.451 106.169 369.841 105.956C371.49 108.931 373.075 111.95 374.597 115.01ZM368.266 107.356C369.824 110.175 371.325 113.035 372.769 115.931C372.47 116 372.163 116.036 371.848 116.036C369.32 116.036 367.197 113.706 367.197 110.736C367.197 109.441 367.601 108.267 368.266 107.356ZM367.884 106.668C367.005 107.746 366.473 109.18 366.473 110.736C366.473 114.02 368.84 116.76 371.848 116.76C372.28 116.76 372.699 116.703 373.099 116.597C373.513 117.434 373.921 118.273 374.325 119.116C373.545 119.414 372.712 119.575 371.848 119.575C367.589 119.575 364.064 115.66 364.064 110.736C364.064 108.174 365.018 105.885 366.534 104.279C366.988 105.072 367.438 105.868 367.884 106.668ZM369.488 105.321C369.096 105.535 368.732 105.802 368.402 106.111C367.963 105.324 367.519 104.54 367.07 103.76C367.409 103.46 367.771 103.192 368.15 102.959C368.601 103.743 369.046 104.53 369.488 105.321ZM367.787 102.329C367.407 102.562 367.044 102.826 366.701 103.119C356.855 86.104 344.914 70.6002 331.161 57.0915C304.456 30.8594 271.906 13.1171 236.924 5.73107C201.941 -1.65504 165.82 1.58861 132.351 15.1204C98.8821 28.652 69.3023 51.9712 46.7106 82.6269C24.1191 113.282 9.34703 150.146 3.94026 189.35C-1.4665 228.555 2.69075 268.659 15.977 305.458C29.2245 342.149 51.0622 374.209 79.2146 398.293L78.4113 399.464C50.1025 375.228 28.1345 342.97 14.8025 306.045C1.42245 268.986 -2.76497 228.596 2.68051 189.111C8.12598 149.626 23.0031 112.505 45.7479 81.6412C68.4925 50.7779 98.2652 27.3107 131.94 13.6957C165.614 0.0808957 201.953 -3.18164 237.146 4.24887C272.34 11.6795 305.095 29.5306 331.976 55.9353C345.834 69.5478 357.867 85.175 367.787 102.329ZM370.148 105.018C369.698 104.212 369.244 103.41 368.785 102.61C369.728 102.151 370.764 101.898 371.848 101.898C376.108 101.898 379.633 105.812 379.633 110.736C379.633 113.553 378.479 116.04 376.694 117.653C376.296 116.823 375.893 115.996 375.486 115.172C376.559 114.065 377.224 112.477 377.224 110.736C377.224 107.452 374.857 104.712 371.848 104.712C371.252 104.712 370.68 104.82 370.148 105.018ZM384.744 139.045C384.744 138.907 384.751 138.772 384.766 138.639C385.121 139.606 385.47 140.577 385.813 141.55C385.168 140.976 384.744 140.08 384.744 139.045ZM386.775 142.106C386.234 140.553 385.678 139.008 385.106 137.471C385.59 136.503 386.505 135.868 387.515 135.868C389.006 135.868 390.287 137.248 390.287 139.045C390.287 140.842 389.006 142.222 387.515 142.222C387.26 142.222 387.012 142.182 386.775 142.106ZM376.5 110.736C376.5 112.21 375.977 113.526 375.141 114.478C373.656 111.5 372.111 108.56 370.506 105.662C370.932 105.515 371.384 105.436 371.848 105.436C374.377 105.436 376.5 107.766 376.5 110.736Z" stroke="white" stroke-opacity="0.74" stroke-width="0.72381"/>
<defs>
<linearGradient id="paint0_linear_94_5763" x1="365.826" y1="124.671" x2="196.552" y2="397.864" gradientUnits="userSpaceOnUse">
<stop stop-color="white"/>
<stop offset="1" stop-color="white" stop-opacity="0"/>
</linearGradient>
</defs>
</svg>
