<svg width="25" height="24" viewBox="0 0 25 24" fill="none" xmlns="http://www.w3.org/2000/svg">
<path d="M24.7725 12.0733C24.7725 5.40541 19.3671 -1.90735e-06 12.6992 -1.90735e-06C6.03127 -1.90735e-06 0.625854 5.40541 0.625854 12.0733C0.625854 18.0995 5.0409 23.0943 10.8127 24V15.5633H7.74724V12.0733H10.8127V9.41343C10.8127 6.38755 12.6152 4.71615 15.373 4.71615C16.6939 4.71615 18.0756 4.95195 18.0756 4.95195V7.92313H16.5532C15.0534 7.92313 14.5856 8.85379 14.5856 9.80857V12.0733H17.9341L17.3988 15.5633H14.5856V24C20.3575 23.0943 24.7725 18.0995 24.7725 12.0733Z" fill="white"/>
</svg>
