<svg width="125" height="24" viewBox="0 0 125 24" fill="none" xmlns="http://www.w3.org/2000/svg">
<path d="M8.60979 23.6301H3.94817V11.9821H0.772583V8.18972H3.94804V5.49119C3.94804 2.29342 5.35256 0 10.0016 0C10.9848 0 12.5285 0.198651 12.5285 0.198651V3.72007H10.9071C9.25508 3.72007 8.61004 4.22376 8.61004 5.61631V8.18972H12.4667L12.1232 11.9821H8.60991L8.60979 23.6301ZM19.306 7.88666C19.2381 7.88666 19.1682 7.88914 19.099 7.89088C14.7765 7.89088 12.7988 11.1499 12.7988 15.7762C12.7988 21.604 15.3641 23.9365 19.1328 23.9365C21.289 23.9365 22.7056 23.0268 23.5667 21.3292V23.6317H28.0005V8.19134H23.5667V10.5659C22.8636 9.03815 21.4074 7.90477 19.306 7.88666ZM20.4334 11.5352C22.2489 11.5352 23.3385 12.8045 23.3385 14.9635L23.3428 17.1686C23.3428 18.6238 22.4427 20.3262 20.4334 20.3262C17.3443 20.3262 17.4268 16.9828 17.4268 15.8693C17.4268 12.1236 19.0727 11.5352 20.4334 11.5352ZM29.7912 15.9123C29.7912 14.0361 29.7016 7.89671 37.6816 7.89671C40.8849 7.89671 42.2224 8.91762 42.2224 8.91762L41.1474 12.2598C41.1474 12.2598 39.8115 11.5225 38.0709 11.5225C35.8415 11.5225 34.4189 12.818 34.4189 15.0973L34.4214 16.7316C34.4214 18.9217 35.794 20.3837 38.0755 20.3837C39.6612 20.3837 41.1228 19.6395 41.1228 19.6395L42.1951 22.9119C42.1951 22.9119 40.9721 23.9392 37.704 23.9392C30.1058 23.9392 29.7913 18.4311 29.7913 15.9123H29.7912ZM68.2198 7.89088C72.5425 7.89088 74.5513 11.1499 74.5513 15.7762C74.5513 21.604 71.9859 23.9365 68.2172 23.9365C66.061 23.9365 64.4671 23.027 63.6061 21.3292V23.6317L59.228 23.63V0.469472L63.8764 0.0631171V10.3567C64.5473 8.55578 66.752 7.89088 68.2198 7.89088ZM66.9166 11.5352C65.1012 11.5352 63.8764 12.8045 63.8764 14.9635L63.8721 17.1686C63.8693 18.6238 64.7202 20.3262 66.9166 20.3262C70.0057 20.3262 69.9232 16.9828 69.9232 15.8693C69.9232 12.1236 68.2775 11.5352 66.9166 11.5352ZM50.2878 7.90365C45.385 7.90365 42.7967 10.583 42.7967 15.3444V16.229C42.7967 22.4089 46.4315 24 50.7649 24C54.977 24 56.8835 22.8191 56.8835 22.8191L56.0137 19.6744C56.0137 19.6744 53.771 20.6309 51.3223 20.6309C48.7837 20.6309 47.6919 19.9823 47.4121 17.537H57.2552V15.0142C57.2552 9.84925 54.3503 7.90353 50.2877 7.90353L50.2878 7.90365ZM50.4059 11.0526C52.103 11.0526 53.2027 12.0957 53.1423 14.5148H47.4206C47.5198 11.9687 48.7057 11.0526 50.4059 11.0526ZM83.82 7.88245C78.7853 7.88245 76.1347 10.7263 76.1347 15.8227C76.1347 22.8152 80.7037 23.9407 83.8284 23.9407C88.4028 23.9407 91.4462 21.4722 91.4462 15.8862C91.4462 10.0721 88.0243 7.88245 83.82 7.88245ZM83.7567 11.5478C85.9705 11.5478 86.8478 13.2086 86.8478 15.099V16.7243C86.8478 19.0144 85.6203 20.339 83.7483 20.339C81.9975 20.339 80.767 19.0999 80.767 16.7243V15.099C80.767 12.5654 82.2312 11.5478 83.7567 11.5478ZM100.707 7.88245C95.6718 7.88245 93.0213 10.7263 93.0213 15.8227C93.0213 22.8152 97.5902 23.9407 100.715 23.9407C105.289 23.9407 108.333 21.4722 108.333 15.8862C108.333 10.0721 104.911 7.88245 100.707 7.88245ZM100.643 11.5478C102.857 11.5478 103.734 13.2086 103.734 15.099V16.7243C103.734 19.0144 102.507 20.339 100.635 20.339C98.884 20.339 97.6536 19.0999 97.6536 16.7243V15.099C97.6536 12.5654 99.1177 11.5478 100.643 11.5478ZM110.089 23.6301V0.469472L114.751 0.0631171V15.5868L119.376 8.18972H124.3L119.475 15.851L124.485 23.6301H119.548L114.751 16.0766V23.6301H110.089Z" fill="white"/>
</svg>
