<svg width="86" height="24" viewBox="0 0 86 24" fill="none" xmlns="http://www.w3.org/2000/svg">
<g clip-path="url(#clip0_94_5953)">
<path fill-rule="evenodd" clip-rule="evenodd" d="M4.71812 0.0877659C2.99241 0.819473 1.09121 2.86825 0.476974 5.4146C-0.283507 8.66338 2.87541 10.039 3.13866 9.59996C3.43115 9.07313 2.58292 8.89752 2.37818 7.19996C2.17343 5.03411 3.19716 2.57557 4.45487 1.52191C4.68887 1.31703 4.68887 1.60972 4.68887 2.10728L4.63037 12.9658C4.63037 15.278 4.54262 16.0097 4.36713 16.7414C4.19163 17.4731 3.92839 17.9707 4.13313 18.1756C4.36713 18.3804 5.39085 17.8829 5.97584 17.0634C6.64857 16.039 6.99956 14.839 6.97031 13.639C7.02881 12.0878 7.02881 9.62923 7.02881 8.25362C7.02881 6.96581 7.05806 3.21947 6.99956 0.965815C6.97031 0.351181 5.44935 -0.234185 4.71812 0.0877659ZM66.2878 10.9463C66.2586 11.9122 66.0538 12.878 65.6151 13.7561C64.9716 15.0439 63.6554 15.4536 63.0704 13.5804C62.7779 12.5853 62.7487 10.8878 62.9827 9.48289C63.2167 8.04874 63.8309 6.96581 64.8839 7.05362C65.9368 7.17069 66.4048 8.48777 66.2878 10.9463ZM48.943 18.439C48.9138 20.4292 48.6213 22.1853 47.9485 22.7122C46.9833 23.4439 45.6963 22.8878 45.9596 21.4243C46.1936 20.1365 47.305 18.8195 48.9723 17.1804L48.943 18.439ZM48.6798 10.917C48.6505 11.8829 48.4165 12.8487 48.007 13.7561C47.3635 15.0439 46.0181 15.4536 45.4623 13.5804C45.0821 12.3219 45.1699 10.6829 45.3746 9.62923C45.6086 8.28289 46.2228 7.05362 47.2758 7.05362C48.2995 7.08289 48.826 8.19508 48.6798 10.917ZM38.618 10.917C38.5888 11.9122 38.384 12.878 37.9745 13.7561C37.3018 15.0439 36.0148 15.4244 35.4298 13.5804C35.0204 12.2634 35.1666 10.4195 35.3421 9.45362C35.6053 7.9902 36.2488 6.96581 37.2433 7.05362C38.267 7.17069 38.7643 8.48776 38.618 10.917ZM84.6856 12.2634C84.4516 12.2634 84.3054 12.5268 84.2176 12.9658C83.8959 14.4878 83.5449 14.839 83.1061 14.839C82.6089 14.839 82.1702 14.078 82.0532 12.5853C81.9654 11.3853 81.9654 9.21947 82.1117 7.05362C82.1409 6.61459 81.9947 6.17557 80.8247 5.73655C80.3275 5.56094 79.567 5.26825 79.1868 6.17557C78.4555 7.9024 77.929 9.68777 77.6365 11.5317C77.6365 11.5902 77.578 11.5902 77.5488 11.4731C77.4903 10.8292 77.344 9.62923 77.344 7.14142C77.344 6.64386 77.2271 6.23411 76.7006 5.91216C76.3496 5.67801 75.2966 5.29752 74.8871 5.76581C74.5654 6.1463 74.1851 7.17069 73.7756 8.37069L73.2199 10.0097V6.35118C73.2199 5.97069 72.9567 5.85362 72.8689 5.82435C72.4302 5.67801 71.9914 5.5902 71.5234 5.56094C71.1725 5.56094 71.0847 5.76581 71.0847 6.0585C71.0847 6.08777 71.0262 9.54142 71.0262 11.9707V12.2926C70.8215 13.4048 70.178 14.8975 69.4467 14.8975C68.7448 14.8975 68.3938 14.2536 68.3938 11.3853C68.3938 9.71703 68.4523 8.98533 68.4815 7.75606C68.5108 7.05362 68.54 6.52679 68.54 6.40972C68.54 6.02923 67.8965 5.85362 67.5748 5.76581C67.2823 5.70728 67.0191 5.67801 66.8143 5.67801C66.5218 5.70728 66.3171 5.88289 66.3171 6.1463V6.55606C65.9953 6.0585 65.4981 5.64874 64.9424 5.44386C63.8601 5.12191 62.7487 5.4146 61.9004 6.58533C61.1692 7.63899 60.7305 8.86825 60.6427 10.1268C60.5257 11.239 60.555 12.3804 60.7597 13.3463C60.5257 14.4292 60.0285 14.8683 59.5312 14.8683C58.8 14.8683 58.2443 13.639 58.3028 11.5609C58.3613 10.1853 58.6245 9.21947 58.917 7.8146C59.034 7.19996 58.9463 6.90728 58.683 6.61459C58.449 6.35118 57.9225 6.20484 57.1913 6.38045C56.6648 6.49752 55.9043 6.64386 55.2316 6.73167C55.2316 6.73167 55.2608 6.58533 55.3193 6.29264C55.4948 4.77069 53.8276 4.88777 53.3012 5.38533C52.9794 5.67801 52.7747 6.02923 52.6869 6.64386C52.5699 7.60972 53.3596 8.07801 53.3596 8.07801C52.8332 10.039 51.9849 11.8536 50.815 13.4926V12.9658C50.815 10.4487 50.8442 8.4585 50.8442 7.75606C50.8735 7.05362 50.9027 6.52679 50.9027 6.40972C50.9027 6.1463 50.7272 6.02923 50.4055 5.91216C50.113 5.79508 49.762 5.70728 49.411 5.67801C48.9723 5.64874 48.6798 5.88289 48.6798 6.17557V6.55606C48.358 6.02923 47.8608 5.64874 47.305 5.44386C46.2228 5.12191 45.1114 5.4146 44.2631 6.58533C43.5611 7.63899 43.1224 8.86825 43.0054 10.1268C42.8884 11.2975 42.9177 12.2926 43.0639 13.1707C42.8884 14.0195 42.3912 14.8975 41.8354 14.8975C41.1335 14.8975 40.724 14.2829 40.724 11.3853C40.724 9.71703 40.7825 8.98533 40.8117 7.75606C40.841 7.05362 40.8702 6.52679 40.8702 6.40972C40.8702 6.02923 40.2267 5.85362 39.905 5.76581C39.5832 5.67801 39.32 5.67801 39.1153 5.67801C38.852 5.70728 38.6473 5.94142 38.6473 6.11703V6.52679C38.3255 5.99996 37.8283 5.61947 37.2725 5.4146C36.1903 5.09264 35.0789 5.38533 34.2306 6.55606C33.6749 7.31703 33.2069 8.19508 32.9729 10.0683C32.9144 10.5658 32.8852 11.0926 32.8852 11.5902C32.6512 12.9365 31.6859 14.517 30.867 14.517C30.399 14.517 29.931 13.6097 29.931 11.678C29.931 9.1024 30.1065 5.41459 30.1065 5.06338L31.3349 5.03411C31.8322 5.03411 32.3002 5.03411 32.9729 5.00484C33.3239 4.97557 33.6456 3.77557 33.2947 3.62923C33.1484 3.57069 32.0077 3.51216 31.5689 3.48289C31.1887 3.48289 30.165 3.39508 30.165 3.39508C30.165 3.39508 30.2527 0.936546 30.282 0.7024C30.3112 0.468254 30.0187 0.380449 29.8432 0.292644C29.463 0.146302 29.0828 0.0292293 28.7025 -0.0293073C28.1468 -0.14638 27.8835 -0.0293073 27.825 0.438985C27.7373 1.17069 27.708 3.30728 27.708 3.30728C27.2985 3.30728 25.8653 3.21947 25.4558 3.21947C25.0756 3.21947 24.6369 4.88777 25.1926 4.91703L27.591 4.97557L27.5618 9.95118V10.3024C27.1816 12.3512 25.8068 13.4634 25.8068 13.4634C26.0993 12.117 25.4851 11.0926 24.4029 10.2439C23.9934 9.92191 23.2037 9.33655 22.2969 8.66338C22.2969 8.66338 22.8234 8.16581 23.2622 7.14142C23.5839 6.40972 23.6131 5.5902 22.7942 5.4146C21.4779 5.09264 20.3957 6.0585 20.074 7.11216C19.8107 7.78533 19.957 8.57557 20.4542 9.1024L20.5712 9.24874C20.2787 9.80484 19.8692 10.5951 19.5182 11.1804C18.553 12.8195 17.851 14.1365 17.2953 14.1365C16.8566 14.1365 16.8566 12.8195 16.8566 11.5609C16.8566 10.478 16.9443 8.86825 17.0028 7.19996C17.0321 6.64386 16.7396 6.32191 16.2716 6.0585C15.8913 5.79508 15.4818 5.61947 15.0431 5.53167C14.5166 5.53167 13.0249 5.61947 11.5917 9.71703C11.4162 10.2439 11.0652 11.1804 11.0652 11.1804L11.0945 6.26338C11.0945 6.1463 11.036 6.02923 10.8897 5.97069C10.451 5.73655 9.95374 5.5902 9.4565 5.56094C9.19326 5.56094 9.04701 5.67801 9.04701 5.94142L8.98851 13.6683C8.98851 14.2536 9.01776 14.9268 9.07626 15.2487C9.13476 15.5414 9.2225 15.7756 9.3395 15.9219C9.4565 16.0683 9.5735 16.1853 9.80749 16.2146C10.0122 16.2731 11.153 16.3902 11.2115 15.9804C11.2992 15.4536 11.2992 14.8975 11.8842 12.8195C12.7909 9.59996 13.9901 7.9902 14.5751 7.43411C14.6629 7.31703 14.7799 7.31703 14.7799 7.49264L14.6044 11.4731C14.4581 15.5122 15.1894 16.2439 16.2423 16.2439C17.0321 16.2439 18.1728 15.4536 19.4012 13.4341L21.4194 10.0683L22.6187 11.1512C23.5839 12.0585 23.9056 12.9073 23.6716 13.7268C23.5254 14.3414 22.9112 15.0146 21.8289 14.3707C21.5072 14.1951 21.3902 14.0487 21.0685 13.8439C20.893 13.7268 20.6297 13.6975 20.4835 13.8146C20.074 14.1073 19.84 14.517 19.723 14.9853C19.606 15.4536 20.074 15.6878 20.542 15.8926C20.9515 16.0683 21.8582 16.2439 22.4139 16.2731C24.6369 16.3609 26.3918 15.2195 27.6203 12.2634C27.8543 14.8097 28.7903 16.2439 30.399 16.2439C31.4812 16.2439 32.5927 14.839 33.0607 13.4634C33.2069 14.0195 33.4116 14.517 33.6749 14.9268C34.9326 16.917 37.3603 16.478 38.5888 14.7804C38.969 14.2536 39.0275 14.078 39.0275 14.078C39.1153 15.2487 40.0512 16.1853 41.2212 16.2439C42.0402 16.2439 42.8884 15.8634 43.5026 14.517C43.5611 14.6634 43.6489 14.8097 43.7366 14.9268C44.9944 16.917 47.4221 16.478 48.6505 14.7804L48.7968 14.5756L48.826 15.6292L47.7145 16.6536C45.8133 18.3804 44.3801 19.6975 44.2924 21.2195C44.1461 23.1804 45.7256 23.8829 46.9248 24C48.1533 24.0585 49.294 23.4439 49.9667 22.4195C50.5517 21.5707 50.932 19.6975 50.9027 17.8536L50.8442 15.1902C52.6284 13.1122 54.0324 10.7122 54.9099 8.10728C54.9099 8.10728 55.6118 8.10728 56.3431 8.07801C56.5771 8.04874 56.6648 8.10728 56.6063 8.28289C56.5478 8.48777 55.6703 11.9122 56.4893 14.1951C57.0451 15.7463 58.3028 16.2439 59.034 16.2439C59.8822 16.2439 60.7305 15.6 61.1692 14.6048L61.3447 14.9268C62.6024 16.917 65.0301 16.478 66.2586 14.7804C66.5218 14.4 66.6973 14.078 66.6973 14.078C66.9606 15.717 68.2475 16.2439 68.9788 16.2439C69.7392 16.2439 70.4705 15.9219 71.0555 14.5463C71.0847 15.1609 71.114 15.6585 71.1725 15.8341C71.2017 15.9219 71.4357 16.0683 71.5819 16.0975C72.2839 16.3609 72.9859 16.2439 73.2491 16.1853C73.4246 16.1561 73.5709 16.0097 73.6001 15.6292C73.6586 14.6341 73.6294 12.9658 73.9219 11.7073C74.4191 9.59996 74.8871 8.80972 75.1211 8.39996C75.2381 8.16581 75.3843 8.13655 75.3843 8.37069C75.3843 8.83899 75.4136 10.2731 75.6183 12.1463C75.7646 13.5512 75.9693 14.3707 76.1156 14.6341C76.5543 15.3951 77.0808 15.4244 77.4903 15.4244C77.7535 15.4244 78.3385 15.3365 78.28 14.8683C78.2508 14.6341 78.3093 13.2 78.8065 11.1512C79.1283 9.80484 79.6547 8.60484 79.8595 8.13655C79.9472 7.9902 79.9765 8.10728 79.9765 8.13655C79.918 9.04386 79.8302 12.0878 80.2105 13.7268C80.7077 15.9512 82.1994 16.2146 82.7259 16.2146C83.8374 16.2146 84.7149 15.3658 85.0366 13.1707C85.1244 12.6731 85.0073 12.2634 84.6856 12.2634Z" fill="white"/>
</g>
<defs>
<clipPath id="clip0_94_5953">
<rect width="84.7059" height="24" fill="white" transform="translate(0.359985)"/>
</clipPath>
</defs>
</svg>
