<svg width="25" height="24" viewBox="0 0 25 24" fill="none" xmlns="http://www.w3.org/2000/svg">
<g clip-path="url(#clip0_94_5951)">
<path d="M7.39008 0.0839251C6.11329 0.144165 5.24136 0.347925 4.47912 0.647445C3.69024 0.954885 3.0216 1.36745 2.35632 2.03513C1.69104 2.70281 1.28136 3.37193 0.976085 4.16201C0.680645 4.92593 0.480485 5.79857 0.424085 7.07609C0.367685 8.35361 0.355205 8.76425 0.361445 12.023C0.367685 15.2817 0.382085 15.6902 0.444005 16.9703C0.504965 18.2469 0.708005 19.1186 1.00752 19.881C1.31544 20.6699 1.72752 21.3383 2.39544 22.0038C3.06336 22.6694 3.732 23.0781 4.524 23.3838C5.2872 23.6788 6.16009 23.8799 7.43737 23.9358C8.71465 23.9918 9.12576 24.0047 12.3835 23.9985C15.6413 23.9922 16.0514 23.9778 17.3314 23.9171C18.6113 23.8564 19.4784 23.6519 20.2411 23.3538C21.03 23.0452 21.6989 22.6338 22.3639 21.9657C23.029 21.2975 23.4384 20.6279 23.7434 19.8374C24.0391 19.0742 24.24 18.2013 24.2954 16.925C24.3514 15.6441 24.3646 15.2351 24.3583 11.9769C24.3521 8.71865 24.3374 8.31017 24.2767 7.03049C24.216 5.75081 24.0127 4.88177 23.7134 4.11881C23.405 3.32993 22.9934 2.66201 22.3258 1.99601C21.6581 1.33001 20.988 0.920805 20.1977 0.616485C19.434 0.321045 18.5616 0.119685 17.2843 0.0644851C16.007 0.00928514 15.5959 -0.00487487 12.337 0.00136513C9.078 0.00760513 8.67 0.0215251 7.39008 0.0839251ZM7.53024 21.777C6.36024 21.7262 5.72496 21.5318 5.3016 21.369C4.74096 21.153 4.3416 20.8919 3.91968 20.4741C3.49776 20.0562 3.23856 19.6554 3.01968 19.096C2.85528 18.6726 2.65728 18.0381 2.60256 16.8681C2.54304 15.6035 2.53056 15.2238 2.5236 12.0201C2.51664 8.81633 2.52888 8.43713 2.58432 7.17209C2.63424 6.00305 2.82984 5.36705 2.99232 4.94393C3.20832 4.38257 3.46848 3.98393 3.88728 3.56225C4.30608 3.14057 4.70568 2.88089 5.2656 2.66201C5.68848 2.49689 6.32304 2.30057 7.49256 2.24489C8.75808 2.18489 9.13728 2.17289 12.3406 2.16593C15.5438 2.15897 15.924 2.17097 17.19 2.22664C18.359 2.27753 18.9953 2.4712 19.4179 2.63464C19.9788 2.85065 20.3779 3.11009 20.7996 3.52961C21.2213 3.94913 21.4812 4.34729 21.7001 4.90841C21.8654 5.33009 22.0618 5.96441 22.117 7.13465C22.1772 8.40017 22.1909 8.7796 22.1966 11.9826C22.2024 15.1857 22.1911 15.5661 22.1357 16.8306C22.0846 18.0006 21.8906 18.6362 21.7277 19.06C21.5117 19.6204 21.2513 20.02 20.8322 20.4414C20.4132 20.8629 20.0141 21.1226 19.4539 21.3414C19.0315 21.5063 18.3962 21.7031 17.2277 21.7588C15.9622 21.8183 15.583 21.8308 12.3785 21.8378C9.174 21.8447 8.796 21.8318 7.53048 21.777M17.3129 5.58641C17.3134 5.87123 17.3983 6.14952 17.5569 6.38607C17.7156 6.62262 17.9408 6.80681 18.2041 6.91535C18.4675 7.02389 18.7571 7.05189 19.0363 6.99583C19.3156 6.93976 19.5719 6.80214 19.773 6.60037C19.974 6.3986 20.1107 6.14174 20.1657 5.86228C20.2208 5.58283 20.1917 5.29333 20.0822 5.03039C19.9727 4.76746 19.7877 4.5429 19.5506 4.38512C19.3134 4.22735 19.0348 4.14344 18.75 4.14401C18.3682 4.14477 18.0023 4.29715 17.7328 4.56764C17.4633 4.83813 17.3122 5.20458 17.3129 5.58641ZM6.19848 12.0119C6.2052 15.4151 8.96904 18.1677 12.3715 18.1612C15.774 18.1547 18.5285 15.3911 18.522 11.9879C18.5155 8.58473 15.751 5.83145 12.348 5.83817C8.94504 5.84489 6.192 8.60921 6.19848 12.0119ZM8.35992 12.0076C8.35836 11.2165 8.59143 10.4426 9.02966 9.78395C9.46789 9.12527 10.0916 8.61134 10.8219 8.30714C11.5522 8.00294 12.3564 7.92213 13.1326 8.07494C13.9088 8.22774 14.6223 8.6073 15.1829 9.16561C15.7434 9.72393 16.1258 10.4359 16.2817 11.2115C16.4375 11.9872 16.3599 12.7916 16.0586 13.5231C15.7573 14.2547 15.2458 14.8804 14.5889 15.3212C13.932 15.7621 13.1591 15.9982 12.3679 15.9998C11.8426 16.0009 11.3222 15.8985 10.8365 15.6984C10.3507 15.4984 9.90917 15.2046 9.53698 14.8339C9.16479 14.4632 8.86927 14.0228 8.66731 13.5378C8.46535 13.0529 8.3609 12.5329 8.35992 12.0076Z" fill="white"/>
</g>
<defs>
<clipPath id="clip0_94_5951">
<rect width="24" height="24" fill="white" transform="translate(0.359985)"/>
</clipPath>
</defs>
</svg>
