<svg width="100" height="24" viewBox="0 0 100 24" fill="none" xmlns="http://www.w3.org/2000/svg">
<g clip-path="url(#clip0_94_5940)">
<path d="M97.9634 22.4507C98.0244 22.4513 98.085 22.4395 98.1412 22.416C98.1975 22.3925 98.2483 22.3578 98.2904 22.3141C98.3326 22.2704 98.3652 22.2186 98.3862 22.1619C98.4073 22.1052 98.4163 22.0448 98.4128 21.9845C98.4128 21.6538 98.2111 21.4958 97.7973 21.4958H97.1288V23.227H97.3802V22.4724H97.6892L97.6963 22.4816L98.1758 23.227H98.4448L97.9288 22.4555L97.9634 22.4507ZM97.6726 22.2773H97.381V21.692H97.7505C97.9415 21.692 98.1591 21.7229 98.1591 21.9702C98.1591 22.2545 97.9389 22.2773 97.6711 22.2773" fill="white"/>
<path d="M0 3.52222H3.71174V16.8951H10.5833V20.2832H0V3.52222Z" fill="white"/>
<path d="M12.2242 8.91873H15.79V20.2769H12.2242V8.91873ZM14.0071 3.27197C14.4162 3.27205 14.8161 3.3921 15.1562 3.61696C15.4963 3.84182 15.7614 4.16139 15.9179 4.53525C16.0744 4.90911 16.1153 5.32048 16.0355 5.71734C15.9556 6.11419 15.7586 6.47872 15.4693 6.76482C15.18 7.05092 14.8114 7.24574 14.4102 7.32466C14.0089 7.40357 13.593 7.36303 13.2151 7.20817C12.8371 7.0533 12.5141 6.79106 12.2868 6.45461C12.0595 6.11815 11.9382 5.7226 11.9382 5.31796C11.9382 5.04924 11.9917 4.78316 12.0957 4.53491C12.1997 4.28665 12.3521 4.06109 12.5442 3.8711C12.7363 3.68111 12.9644 3.53041 13.2154 3.42761C13.4664 3.32481 13.7354 3.27192 14.0071 3.27197Z" fill="white"/>
<path d="M30.7061 3.51953H34.2718V13.5364L38.313 8.91352H42.6848L38.0047 14.172L42.5864 20.2816H38.1046L34.3194 14.6672H34.2726V20.2809H30.7068L30.7061 3.51953Z" fill="white"/>
<path d="M17.7672 8.91993H21.1915V10.4721H21.2401C21.5821 9.89254 22.0769 9.41572 22.6716 9.09258C23.2662 8.76943 23.9384 8.6121 24.6164 8.6374C28.2324 8.6374 28.898 10.9905 28.898 14.0476V20.2763H25.3322V14.754C25.3322 13.4359 25.3077 11.7415 23.475 11.7415C21.6216 11.7415 21.3356 13.1768 21.3356 14.6582V20.2748H17.7698L17.7672 8.91993Z" fill="white"/>
<path d="M50.194 13.2766C50.2008 12.9904 50.1489 12.7059 50.0412 12.4402C49.9336 12.1745 49.7726 11.9332 49.5679 11.7309C49.3632 11.5286 49.1191 11.3695 48.8504 11.2632C48.5818 11.1569 48.2941 11.1057 48.0048 11.1126C47.3818 11.0743 46.7684 11.2797 46.2971 11.6844C45.8257 12.0892 45.5341 12.661 45.485 13.2766H50.194ZM53.2145 18.3098C52.622 19.0205 51.8771 19.592 51.0337 19.9828C50.1903 20.3736 49.2697 20.5741 48.3383 20.5696C44.7726 20.5696 41.9177 18.2154 41.9177 14.5698C41.9177 10.9242 44.7722 8.57104 48.3383 8.57104C51.6712 8.57104 53.7613 10.9223 53.7613 14.5698V15.6756H45.485C45.588 16.3028 45.9167 16.8719 46.4106 17.2783C46.9044 17.6847 47.5301 17.9008 48.1723 17.8869C48.6798 17.8838 49.1785 17.7552 49.623 17.5128C50.0674 17.2703 50.4435 16.9218 50.717 16.4989L53.2145 18.3098Z" fill="white"/>
<path d="M61.1937 11.6643C59.4108 11.6643 58.3411 12.8418 58.3411 14.5575C58.3411 16.2732 59.4104 17.4517 61.1937 17.4517C62.9769 17.4517 64.0489 16.2761 64.0489 14.5575C64.0489 12.8388 62.9788 11.6643 61.1937 11.6643ZM67.3316 20.2748H64.0489V18.7685H64.0002C63.5884 19.3164 63.0542 19.7628 62.4393 20.073C61.8245 20.3832 61.1455 20.5488 60.4553 20.5569C57.0292 20.5569 54.7723 18.1112 54.7723 14.6526C54.7723 11.4762 56.7695 8.55949 60.0526 8.55949C61.5283 8.55949 62.9067 8.95884 63.7153 10.0658H63.7621V3.51855H67.3312L67.3316 20.2748Z" fill="white"/>
<path d="M91.4039 20.2812H87.8382V14.7579C87.8382 13.4408 87.8144 11.7453 85.9836 11.7453C84.1264 11.7453 83.8423 13.1803 83.8423 14.662V20.2808H80.2765V8.92266H83.6996V10.4749H83.7476C84.0901 9.89552 84.5852 9.41892 85.1799 9.09582C85.7747 8.77273 86.4469 8.61525 87.125 8.64014C90.7391 8.64014 91.4054 10.9914 91.4054 14.0503L91.4039 20.2812ZM76.2531 7.37008C75.8439 7.37015 75.4438 7.25019 75.1034 7.02535C74.7631 6.80052 74.4979 6.48091 74.3412 6.10695C74.1845 5.73299 74.1434 5.32147 74.2232 4.92443C74.303 4.52739 74.5 4.16266 74.7893 3.87637C75.0787 3.59008 75.4473 3.39509 75.8487 3.31604C76.2501 3.237 76.6662 3.27746 77.0443 3.4323C77.4224 3.58714 77.7456 3.84942 77.9731 4.18596C78.2005 4.5225 78.3219 4.91819 78.322 5.323C78.3221 5.59177 78.2686 5.85793 78.1646 6.10627C78.0607 6.35461 77.9083 6.58026 77.7162 6.77035C77.5241 6.96044 77.296 7.11124 77.045 7.21414C76.7939 7.31704 76.5249 7.37003 76.2531 7.37008ZM78.036 20.2812H74.4665V8.92266H78.036V20.2812ZM93.1816 0.00137757H72.6748C72.2093 -0.00381779 71.7608 0.173975 71.4278 0.495686C71.0948 0.817397 70.9046 1.25671 70.8989 1.71708V22.0847C70.9044 22.5453 71.0945 22.9849 71.4275 23.307C71.7605 23.629 72.2091 23.8072 72.6748 23.8023H93.1816C93.6482 23.808 94.0981 23.6304 94.4323 23.3084C94.7666 22.9863 94.958 22.5462 94.9645 22.0847V1.71561C94.9578 1.25432 94.7663 0.814515 94.432 0.492812C94.0977 0.171108 93.648 -0.00617638 93.1816 -9.25756e-05" fill="white"/>
<path d="M97.7031 20.7249C97.2693 20.729 96.8547 20.9029 96.5502 21.2085C96.2456 21.5141 96.0758 21.9266 96.0779 22.3557C96.08 22.7848 96.2538 23.1957 96.5613 23.4984C96.8688 23.8011 97.285 23.971 97.7189 23.971C98.1527 23.971 98.5689 23.8011 98.8764 23.4984C99.184 23.1957 99.3578 22.7848 99.3599 22.3557C99.362 21.9266 99.1922 21.5141 98.8876 21.2085C98.583 20.9029 98.1685 20.729 97.7347 20.7249H97.7031ZM97.7031 23.7852C97.4185 23.7899 97.139 23.711 96.8998 23.5585C96.6605 23.4061 96.4724 23.1868 96.3591 22.9286C96.2458 22.6704 96.2125 22.3847 96.2634 22.1077C96.3143 21.8308 96.447 21.575 96.6449 21.3726C96.8427 21.1703 97.0968 21.0305 97.375 20.971C97.6531 20.9115 97.9429 20.9349 98.2076 21.0383C98.4723 21.1417 98.7001 21.3204 98.8621 21.5518C99.0241 21.7832 99.1131 22.057 99.1179 22.3384C99.1179 22.3465 99.1179 22.3542 99.1179 22.3623C99.1258 22.7315 98.9852 23.0888 98.7269 23.3555C98.4687 23.6221 98.1139 23.7765 97.7406 23.7845H97.7035" fill="white"/>
</g>
<defs>
<clipPath id="clip0_94_5940">
<rect width="99.36" height="24" fill="white"/>
</clipPath>
</defs>
</svg>
