<svg width="24" height="25" viewBox="0 0 24 25" fill="none" xmlns="http://www.w3.org/2000/svg">
<path d="M22 8.20871V17.6737C22 18.4389 21.7077 19.1752 21.1827 19.732C20.6578 20.2887 19.9399 20.6238 19.176 20.6687L19 20.6737H5C4.23479 20.6738 3.49848 20.3814 2.94174 19.8564C2.38499 19.3315 2.04989 18.6136 2.005 17.8497L2 17.6737V8.20871L11.445 14.5057L11.561 14.5717C11.6977 14.6385 11.8478 14.6732 12 14.6732C12.1521 14.6732 12.3023 14.6385 12.439 14.5717L12.555 14.5057L22 8.20871Z" fill="white"/>
<path d="M19 4.67372C20.08 4.67372 21.027 5.24372 21.555 6.10072L12 12.4707L2.445 6.10072C2.69573 5.69348 3.04022 5.35212 3.44971 5.1051C3.85921 4.85808 4.32184 4.71257 4.799 4.68072L5 4.67372H19Z" fill="white"/>
</svg>
