<svg width="79" height="73" viewBox="0 0 79 73" fill="none" xmlns="http://www.w3.org/2000/svg">
<path d="M39.3243 53.0878C39.3243 63.9469 30.5213 72.75 19.6622 72.75C8.80305 72.75 0 63.9469 0 53.0878C0 42.2287 8.80305 33.4257 19.6622 33.4257C30.5213 33.4257 39.3243 42.2287 39.3243 53.0878Z" fill="#1B83CB"/>
<path d="M78.6487 53.0878C78.6487 63.9469 69.8456 72.75 58.9865 72.75C48.1274 72.75 39.3243 63.9469 39.3243 53.0878C39.3243 42.2287 48.1274 33.4257 58.9865 33.4257C69.8456 33.4257 78.6487 42.2287 78.6487 53.0878Z" fill="#1B83CB"/>
<path d="M58.9865 19.6622C58.9865 30.5213 50.1834 39.3243 39.3243 39.3243C28.4652 39.3243 19.6622 30.5213 19.6622 19.6622C19.6622 8.80305 28.4652 0 39.3243 0C50.1834 0 58.9865 8.80305 58.9865 19.6622Z" fill="#1B83CB"/>
<path d="M39.3389 15.8389L59.4066 52.2139H19.2711L39.3389 15.8389Z" fill="#231F20"/>
</svg>
